<?xml version="1.0" encoding="utf-8"?>
<!-- Generator: Adobe Illustrator 16.0.0, SVG Export Plug-In . SVG Version: 6.00 Build 0)  -->
<!DOCTYPE svg PUBLIC "-//W3C//DTD SVG 1.1//EN" "http://www.w3.org/Graphics/SVG/1.1/DTD/svg11.dtd">
<svg version="1.1" id="图层_1" xmlns="http://www.w3.org/2000/svg" xmlns:xlink="http://www.w3.org/1999/xlink" x="0px" y="0px"
	 width="50px" height="50px" viewBox="0 0 50 50" enable-background="new 0 0 50 50" xml:space="preserve">
<g>
	<path fill="#F08300" d="M29.424,34.104c0,2.24-1.817,4.056-4.057,4.056l0,0c-2.241,0-4.057-1.815-4.057-4.056V20.126
		c0-2.241,1.816-4.057,4.057-4.057l0,0c2.24,0,4.057,1.815,4.057,4.057V34.104z"/>
	<path fill="#F08300" d="M48.73,14.783L32.07,2.944c-0.635-0.449-3.293-2.806-6.676-2.756c-3.162,0.047-5.657,1.969-7.172,2.929
		L1.821,14.716c-1.494,1.059-2.014,3.796-0.955,5.293c1.058,1.495,3.586,2.291,5.081,1.235L21.712,9.894
		c0,0,1.845-1.399,3.479-1.414c2.348-0.021,3.531,1.212,3.531,1.212l15.602,11.288c1.495,1.057,3.635,0.596,4.735-0.868
		C50.483,18.22,50.225,15.842,48.73,14.783z"/>
	<circle fill="#F08300" cx="38.039" cy="26.215" r="4.128"/>
	<path fill="#F08300" d="M45.297,34.53c-1.458-1.45-3.816-1.444-5.268,0.015c-0.131,0.131-0.245,0.271-0.353,0.416l-0.044-0.034
		c-3.125,4.539-8.354,7.517-14.281,7.517c-5.966,0-11.227-3.015-14.344-7.604l-0.048,0.039c-0.684-0.809-1.704-1.323-2.844-1.323
		c-2.058,0-3.726,1.668-3.726,3.724c0,0.789,0.246,1.519,0.662,2.12l-0.046,0.035C9.509,45.822,16.94,50,25.352,50
		c8.373,0,15.774-4.139,20.283-10.479l-0.046-0.036C46.753,38.02,46.655,35.883,45.297,34.53z"/>
</g>
</svg>
