<?xml version="1.0" encoding="utf-8"?>
<!-- Generator: Adobe Illustrator 16.0.0, SVG Export Plug-In . SVG Version: 6.00 Build 0)  -->
<!DOCTYPE svg PUBLIC "-//W3C//DTD SVG 1.1//EN" "http://www.w3.org/Graphics/SVG/1.1/DTD/svg11.dtd">
<svg version="1.1" id="图层_1" xmlns="http://www.w3.org/2000/svg" xmlns:xlink="http://www.w3.org/1999/xlink" x="0px" y="0px"
	 width="283.46px" height="283.46px" viewBox="0 0 283.46 283.46" enable-background="new 0 0 283.46 283.46" xml:space="preserve">
<g>
	<path fill="#ff9900" d="M166.077,192.995c0,12.746-10.361,23.088-23.14,23.088l0,0c-12.78,0-23.145-10.342-23.145-23.088v-79.538
		c0-12.753,10.365-23.083,23.145-23.083l0,0c12.778,0,23.14,10.33,23.14,23.083V192.995z"/>
	<path fill="#ff9900" d="M276.216,83.048l-95.039-67.369c-3.62-2.56-18.783-15.971-38.085-15.68
		c-18.032,0.268-32.264,11.207-40.906,16.663L8.622,82.67c-8.519,6.024-11.484,21.601-5.443,30.117
		c6.036,8.507,20.46,13.039,28.988,7.025l89.921-64.584c0,0,10.528-7.968,19.85-8.048c13.396-0.114,20.139,6.898,20.139,6.898
		l88.999,64.231c8.532,6.011,20.738,3.395,27.019-4.938C286.215,102.606,284.739,89.074,276.216,83.048z"/>
	<path fill="#ff9900" d="M238.776,148.105c0,12.983-10.544,23.497-23.555,23.497c-13.005,0-23.547-10.514-23.547-23.497
		c0-12.974,10.542-23.494,23.547-23.494C228.232,124.612,238.776,135.131,238.776,148.105z"/>
	<path fill="#ff9900" d="M256.63,195.427c-8.321-8.254-21.778-8.221-30.056,0.078c-0.745,0.748-1.396,1.547-2.008,2.367
		l-0.252-0.193c-17.821,25.832-47.65,42.781-81.463,42.781c-34.034,0-64.042-17.162-81.819-43.275l-0.275,0.207
		c-3.898-4.594-9.717-7.52-16.229-7.52c-11.733,0-21.25,9.49-21.25,21.199c0,4.48,1.401,8.633,3.778,12.057l-0.264,0.203
		c25.691,36.355,68.08,60.129,116.059,60.129c47.76,0,89.979-23.559,115.703-59.637l-0.265-0.203
		C264.932,215.28,264.377,203.118,256.63,195.427z"/>
</g>
</svg>
